<?xml version="1.0" encoding="UTF-8" standalone="no"?>
<!-- Created with Inkscape (http://www.inkscape.org/) -->

<svg
   version="1.1"
   id="svg2"
   width="295.11249"
   height="62.654171"
   viewBox="0 0 295.11248 62.654171"
   sodipodi:docname="devsoverflow_blanco.svg"
   inkscape:version="1.1 (c4e8f9ed74, 2021-05-24)"
   xmlns:inkscape="http://www.inkscape.org/namespaces/inkscape"
   xmlns:sodipodi="http://sodipodi.sourceforge.net/DTD/sodipodi-0.dtd"
   xmlns="http://www.w3.org/2000/svg"
   xmlns:svg="http://www.w3.org/2000/svg">
  <defs
     id="defs6" />
  <sodipodi:namedview
     id="namedview4"
     pagecolor="#ffffff"
     bordercolor="#666666"
     borderopacity="1.0"
     inkscape:pageshadow="2"
     inkscape:pageopacity="0.0"
     inkscape:pagecheckerboard="0"
     showgrid="false"
     inkscape:zoom="5.6568543"
     inkscape:cx="89.714173"
     inkscape:cy="50.646523"
     inkscape:window-width="1920"
     inkscape:window-height="1080"
     inkscape:window-x="0"
     inkscape:window-y="0"
     inkscape:window-maximized="1"
     inkscape:current-layer="g8"
     width="750.64001px"
     fit-margin-top="0"
     fit-margin-left="0"
     fit-margin-right="0"
     fit-margin-bottom="0" />
  <g
     inkscape:groupmode="layer"
     inkscape:label="Image"
     id="g8"
     transform="translate(-4.9620222,9.486986)">
    <path
       style="fill:#ffffff;stroke-width:0.125536"
       d="M 7.3997967,41.588744 V 30.667085 h 3.9543933 3.954393 v 7.594947 7.594947 h 22.031623 22.031622 v -7.594947 -7.594947 h 3.9544 3.95439 V 41.588744 52.510403 H 37.340206 7.3997967 Z"
       id="path853"
       sodipodi:nodetypes="ccccccccccccccccc" />
    <path
       style="fill:#ffffff;stroke-width:0.125536"
       d="m 22.207487,39.809515 v -2.636263 h 16.06865 16.06865 v 2.636263 2.636262 h -16.06865 -16.06865 z m -0.727803,-6.631796 c -0.805317,-2.576306 -0.854923,-2.783428 -0.666625,-2.783428 0.06161,0 7.256268,-1.24281 15.988138,-2.761799 8.73187,-1.518989 15.93356,-2.761799 16.00376,-2.761799 0.13049,0 1.57036,5.534906 1.46681,5.638455 -0.0314,0.0314 -7.07512,1.173255 -15.65269,2.537443 -8.57758,1.364187 -15.767765,2.512229 -15.978182,2.551204 l -0.382579,0.07086 z m -2.009685,-4.697857 c -1.613175,-2.867866 -2.411542,-4.40867 -2.324126,-4.485434 0.05661,-0.04971 3.266444,-1.339007 7.132963,-2.865099 3.866521,-1.526092 10.531721,-4.161409 14.811561,-5.856259 4.27985,-1.694848 7.84888,-3.081544 7.9312,-3.081544 0.11376,0 2.92942,4.877401 2.92942,5.074468 0,0.0224 -0.43781,0.214286 -0.97291,0.426415 -1.59164,0.630973 -11.89608,4.710828 -15.34682,6.076294 -1.76064,0.696692 -5.53009,2.190003 -8.37654,3.318469 -2.846455,1.128466 -5.229068,2.051756 -5.294697,2.051756 -0.06563,0 -0.286153,-0.29658 -0.490051,-0.659066 z m -5.355775,-7.873569 c -1.288887,-1.290562 -2.082217,-2.17545 -2.008581,-2.24039 0.06694,-0.05903 4.584523,-3.26233 10.039076,-7.118436 C 32.512567,3.9178986 34.138777,2.7665786 36.204787,1.2933076 l 1.25536,-0.89520121 2.15759,2.15276121 c 2.09161,2.086921 2.14864,2.157409 1.86457,2.304785 -0.16117,0.08362 -5.84582,4.118713 -12.63257,8.9668844 -6.786739,4.848171 -12.39931,8.837797 -12.472377,8.865835 -0.07307,0.02804 -1.091478,-0.908898 -2.263136,-2.082079 z M 8.1752829,15.802334 c -1.4637307,-0.915748 -2.6619577,-1.71006 -2.6627267,-1.765138 -7.69e-4,-0.05508 1.593829,-1.919291 3.5435506,-4.1426974 1.9497212,-2.223406 5.0070772,-5.709051 6.7941222,-7.745878 1.787046,-2.03682721 4.612267,-5.2690212 6.278268,-7.1826532 2.085251,-2.3951991 3.09465,-3.4655331 3.23948,-3.4350501 0.23529,0.04952 5.36851,3.2379931 5.37169,3.3365961 0.003,0.08859 -19.691957,22.5265716 -19.807878,22.5667926 -0.05235,0.01816 -1.2927742,-0.716224 -2.7565061,-1.631972 z"
       id="path845" />
    <path
       style="fill:#ffffff;stroke-width:0.125536"
       d="m 98.839636,35.648689 c -3.270126,-0.268674 -5.513597,-2.283038 -6.281144,-5.639704 -0.284626,-1.244734 -0.385813,-4.467533 -0.192482,-6.130506 0.200512,-1.724738 0.418743,-2.526964 1.023418,-3.762122 1.164516,-2.37873 3.01134,-3.416465 6.072888,-3.412366 3.100994,0.0042 4.977314,1.000763 6.038694,3.207463 0.5897,1.226039 0.88716,2.726794 0.99863,5.038372 0.0804,1.666868 0.067,1.896323 -0.12188,2.085166 -0.1932,0.193206 -0.73938,0.212194 -6.10342,0.212194 h -5.891241 l 0.001,0.784602 c 0.0022,1.841908 0.521527,3.451743 1.442195,4.470812 1.662622,1.840334 5.426466,1.998101 7.951646,0.333304 0.36852,-0.242951 0.73807,-0.441729 0.82124,-0.441729 0.25495,0 1.22303,1.069528 1.14713,1.267336 -0.13458,0.350694 -1.66411,1.259653 -2.64244,1.570332 -1.10769,0.351756 -2.9109,0.528031 -4.264174,0.416846 z m 5.527814,-11.566553 c -0.14559,-2.053605 -0.60813,-3.54637 -1.38488,-4.469488 -0.7648,-0.908892 -2.84349,-1.455603 -4.472444,-1.176269 -2.543785,0.436211 -3.808863,2.235913 -4.078022,5.801404 l -0.08503,1.126359 h 5.055642 5.055624 z m 49.64528,11.560792 c -2.52425,-0.164993 -4.36317,-0.950538 -5.97507,-2.552418 -1.11682,-1.109883 -1.85505,-2.393163 -2.27819,-3.960279 -0.31381,-1.16217 -0.30651,-4.737242 0.0121,-5.900207 0.86124,-3.144167 3.07456,-5.35861 6.23273,-6.235882 1.16239,-0.322889 5.09333,-0.328468 6.27681,-0.0089 2.39557,0.646845 4.397,2.222619 5.38049,4.236209 0.83584,1.711295 1.05829,2.749222 1.06271,4.958685 0.005,2.54358 -0.34781,3.933925 -1.43581,5.65666 -1.03867,1.644621 -2.98402,3.015838 -4.99087,3.517916 -1.06291,0.265923 -2.81894,0.384042 -4.28487,0.288224 z m 2.13345,-4.390139 c 1.13551,-0.243525 2.09563,-1.20177 2.56692,-2.561935 0.27631,-0.79747 0.39678,-3.137741 0.21215,-4.121838 -0.32549,-1.734945 -1.26864,-3.006159 -2.49457,-3.36229 -0.98191,-0.285238 -2.14653,-0.211601 -2.9618,0.187269 -0.82592,0.404084 -1.24945,0.869337 -1.73747,1.908623 -0.74236,1.580891 -0.74988,4.351005 -0.0163,5.985749 0.74771,1.666108 2.40208,2.399551 4.43102,1.964422 z m 37.78721,4.381723 c -4.30494,-0.282099 -6.89733,-2.264494 -7.93109,-6.064904 -0.23704,-0.871419 -0.2744,-1.344773 -0.28236,-3.577785 -0.008,-2.36143 0.015,-2.65108 0.28469,-3.515017 0.44614,-1.429458 0.99279,-2.355013 1.96512,-3.327361 1.73094,-1.730939 3.77272,-2.455679 6.91829,-2.455679 3.19477,0 5.36959,0.764549 7.1493,2.513298 0.89944,0.883785 1.63108,2.329765 1.87683,3.709254 0.24325,1.365404 0.24932,4.324055 0.01,4.652099 -0.17153,0.234686 -0.40792,0.245007 -6.40235,0.279558 l -6.22425,0.03588 0.001,0.403502 c 0.002,0.614349 0.5315,1.620786 1.11638,2.121429 0.67468,0.577502 1.66532,0.856203 3.03332,0.853387 1.43958,-0.003 2.52256,-0.255479 3.75649,-0.875888 0.65447,-0.329063 1.13706,-0.497071 1.30599,-0.454673 0.2944,0.07389 3.21469,2.968349 3.21469,3.186253 0,0.227474 -0.97909,0.989478 -1.87893,1.46233 -0.46843,0.246151 -1.35299,0.567055 -1.96573,0.713119 -1.31295,0.312992 -4.01339,0.467921 -5.94718,0.341202 z m 4.39377,-11.730857 c 0,-1.245139 -0.8113,-2.362583 -1.94997,-2.685772 -0.74851,-0.212457 -2.3091,-0.222015 -3.02115,-0.0185 -1.1618,0.332053 -1.86193,1.20186 -2.01625,2.504917 l -0.0776,0.655556 h 3.5325 3.53251 z m 47.31922,11.756183 c -3.25049,-0.25945 -4.80843,-1.402082 -5.6051,-4.110924 -0.18815,-0.639744 -0.21802,-1.654659 -0.25683,-8.726331 l -0.0439,-8.002389 -0.57033,-0.435486 c -1.01537,-0.775296 -1.79056,-1.002464 -3.4332,-1.006094 -1.32868,-0.0029 -1.49474,0.02375 -2.08484,0.335081 -0.35265,0.186048 -0.80718,0.477955 -1.01007,0.648681 -0.47104,0.396355 -1.01348,1.390483 -1.11909,2.05099 l -0.082,0.512937 1.09206,0.04485 c 1.54097,0.06329 1.57199,0.109714 1.57199,2.353222 0,2.282433 0.006,2.273679 -1.57632,2.273679 h -1.18549 v 6.700822 c 0,6.079926 -0.0192,6.716786 -0.2076,6.873114 -0.16025,0.132994 -0.76384,0.172291 -2.64638,0.172291 -2.26925,0 -2.45116,-0.01694 -2.61697,-0.243683 -0.14856,-0.203171 -0.17819,-1.345767 -0.17819,-6.873113 v -6.629431 h -0.93255 c -1.33457,0 -1.32753,0.01191 -1.32517,-2.237237 0.001,-1.013481 0.0446,-1.909774 0.0967,-1.99176 0.15624,-0.245734 0.75517,-0.415847 1.46411,-0.415847 0.7175,0 0.81656,-0.106663 0.82072,-0.883763 0.003,-0.558029 0.37201,-1.785028 0.82673,-2.749083 0.64375,-1.364777 1.97151,-2.640719 3.56876,-3.4294564 1.61961,-0.7997803 2.92755,-1.0960583 4.83315,-1.0948233 1.66295,0.0011 2.70531,0.1936 3.86433,0.713741 l 0.73689,0.3306943 0.2921,-0.3666643 0.2921,-0.366665 2.09939,-0.04004 c 2.25598,-0.04303 2.77612,0.05192 2.88543,0.5266923 0.0337,0.146612 0.0754,4.7858734 0.0926,10.3094714 0.0307,9.877251 0.0354,10.050147 0.28913,10.482001 0.31699,0.539596 0.70896,0.749232 1.40541,0.751649 0.36434,0.0013 0.61316,0.08147 0.78461,0.252923 0.22697,0.226969 0.25107,0.418454 0.25107,1.994674 0,2.416821 -0.048,2.462467 -2.39316,2.275279 z m 13.18916,-0.01691 c -2.52425,-0.164993 -4.36317,-0.950538 -5.97506,-2.552418 -1.11682,-1.109883 -1.85505,-2.393163 -2.27819,-3.960279 -0.3138,-1.16217 -0.3065,-4.737242 0.012,-5.900207 0.86124,-3.144167 3.07456,-5.35861 6.23272,-6.235882 1.1624,-0.322889 5.09333,-0.328468 6.27681,-0.0089 2.39558,0.646845 4.397,2.222619 5.3805,4.236209 0.83585,1.711295 1.05829,2.749222 1.06272,4.958685 0.005,2.54358 -0.34782,3.933925 -1.43581,5.65666 -1.03868,1.644621 -2.98404,3.015838 -4.99088,3.517916 -1.06291,0.265923 -2.81894,0.384042 -4.28486,0.288224 z m 2.13345,-4.390139 c 1.13551,-0.243525 2.09563,-1.20177 2.56692,-2.561935 0.27631,-0.79747 0.39678,-3.137741 0.21215,-4.121838 -0.32549,-1.734945 -1.26864,-3.006159 -2.49457,-3.36229 -0.9819,-0.285238 -2.14653,-0.211601 -2.9618,0.187269 -0.82592,0.404084 -1.24945,0.869337 -1.73746,1.908623 -0.74237,1.580891 -0.74989,4.351005 -0.0163,5.985749 0.7477,1.666108 2.40208,2.399551 4.43103,1.964422 z M 78.063378,35.47823 c -2.672509,-0.744824 -4.199166,-3.019161 -4.640314,-6.912912 -0.165464,-1.460438 -0.164108,-3.156855 0.0037,-4.661981 0.293904,-2.635754 1.015339,-4.442774 2.240155,-5.611052 1.250522,-1.192794 2.337169,-1.58631 4.386897,-1.588659 2.082159,-0.0024 3.559605,0.503727 4.602275,1.576556 0.297242,0.30584 0.573724,0.556071 0.614404,0.556071 0.04068,0 0.07397,-2.168873 0.07397,-4.819717 0,-4.2791464 0.02227,-4.8282637 0.198572,-4.8959167 0.253606,-0.09732 1.159975,-0.09558 1.527552,0.0029 l 0.282452,0.07569 V 22.225705 35.252199 l -0.282457,0.0757 c -0.496279,0.132998 -1.07483,0.0848 -1.265013,-0.105381 -0.101477,-0.101477 -0.224042,-0.525162 -0.272366,-0.941522 -0.04832,-0.41636 -0.112286,-0.757018 -0.142138,-0.757018 -0.02985,0 -0.223587,0.192833 -0.43052,0.428517 -0.552421,0.629172 -1.531702,1.211392 -2.479668,1.474255 -0.98727,0.273762 -3.514251,0.303196 -4.417525,0.05146 z m 3.504204,-1.584621 c 1.129479,-0.183263 2.032382,-0.646913 2.695015,-1.383922 0.987702,-1.098562 1.019119,-1.293688 1.019119,-6.329559 0,-5.035872 -0.03142,-5.230998 -1.019119,-6.32956 -0.686308,-0.76334 -1.585658,-1.20952 -2.825974,-1.402006 -3.125011,-0.484972 -5.02947,0.93975 -5.720261,4.279317 -0.312421,1.510374 -0.310788,5.407654 0.0029,6.904497 0.719589,3.433771 2.58249,4.791126 5.848326,4.261233 z m 47.965678,1.577029 c -0.44879,-0.09014 -1.1254,-0.281998 -1.50358,-0.426356 -0.74514,-0.284441 -2.04232,-1.119759 -1.98442,-1.277866 0.0197,-0.05368 0.27536,-0.352323 0.56821,-0.663641 l 0.53246,-0.566034 0.70773,0.42617 c 0.9154,0.551225 1.69537,0.780572 3.28074,0.964693 3.47681,0.403787 5.79303,-0.963535 5.80274,-3.425495 0.008,-2.081492 -1.14553,-3.146876 -4.26547,-3.938876 -3.84863,-0.976971 -5.11995,-1.667159 -5.86105,-3.181917 -0.30021,-0.613616 -0.34443,-0.852186 -0.34107,-1.840431 0.005,-1.471116 0.32757,-2.341732 1.18555,-3.199703 1.14189,-1.141887 2.72279,-1.650514 5.12121,-1.647654 2.16754,0.0026 3.50694,0.334907 4.74888,1.178257 0.88163,0.59867 0.92185,0.727467 0.41171,1.317953 -0.23765,0.275067 -0.50323,0.532453 -0.59017,0.571971 -0.087,0.03952 -0.49164,-0.143731 -0.89931,-0.407219 -1.07578,-0.695303 -2.05338,-0.944376 -3.71299,-0.945981 -2.22081,-0.0021 -3.41634,0.523109 -3.97134,1.744798 -0.27629,0.608179 -0.30638,1.821043 -0.057,2.298349 0.42878,0.82074 1.46755,1.436253 3.21238,1.90347 3.23683,0.866728 3.82786,1.074238 4.93552,1.732886 1.52078,0.904307 2.15729,2.173091 2.15729,4.300222 0,1.238934 -0.0255,1.372604 -0.41184,2.157319 -0.69268,1.407039 -2.17672,2.505644 -3.94925,2.923563 -0.981,0.231293 -3.96847,0.232182 -5.1169,0.0015 z M 115.001,35.187358 c -0.15955,-0.140806 -1.38976,-3.412312 -3.42617,-9.111279 -2.60722,-7.296384 -3.14499,-8.911991 -2.99753,-9.005308 0.26768,-0.169397 1.5453,-0.141084 1.77603,0.03936 0.11036,0.08631 1.40623,3.532278 2.87971,7.657715 1.47349,4.125437 2.70742,7.499998 2.74207,7.499024 0.0346,-10e-4 1.24931,-3.36589 2.69926,-7.477591 1.44994,-4.111701 2.67261,-7.536344 2.71703,-7.610318 0.0997,-0.16596 1.23364,-0.285411 1.66993,-0.175909 0.17636,0.04426 0.32065,0.147785 0.32065,0.23005 0,0.348389 -6.3291,17.874239 -6.50648,18.017026 -0.30227,0.243326 -1.57599,0.200676 -1.8745,-0.06277 z m 57.77951,0.106176 c -0.13809,-0.05936 -0.34058,-0.213453 -0.45,-0.342431 -0.26528,-0.312756 -6.29866,-17.297266 -6.24444,-17.578741 0.0634,-0.32939 0.47743,-0.392919 2.64992,-0.40664 1.41203,-0.0089 2.09873,0.03658 2.3902,0.158366 0.39992,0.167093 0.44478,0.272108 2.02426,4.738996 0.8884,2.512464 1.68678,4.709345 1.77419,4.881957 0.14039,0.277222 0.16909,0.287861 0.24595,0.09118 0.0479,-0.122463 0.81354,-2.266253 1.70151,-4.763979 0.95488,-2.685949 1.71957,-4.64651 1.87171,-4.798793 0.23436,-0.234581 0.4388,-0.261184 2.29922,-0.299216 2.3742,-0.04853 2.89309,0.03828 2.94736,0.49311 0.0437,0.366355 -6.05088,17.411737 -6.32459,17.68863 -0.14921,0.150944 -0.62741,0.193978 -2.41018,0.216896 -1.22323,0.01572 -2.33702,-0.01998 -2.47511,-0.07934 z m 35.75467,-0.0087 c -0.15084,-0.06308 -0.33444,-0.227144 -0.40799,-0.364589 -0.0909,-0.16979 -0.13375,-2.984604 -0.13375,-8.780715 0,-8.209972 0.009,-8.541962 0.2398,-8.82718 0.21865,-0.270225 0.35304,-0.300217 1.52373,-0.340052 0.70616,-0.02403 1.59016,-0.0054 1.96445,0.04134 0.63553,0.0794 0.70988,0.125904 1.12477,0.703388 l 0.44425,0.618365 0.62151,-0.558801 c 0.92236,-0.829268 1.77858,-1.109857 3.20306,-1.049653 1.04917,0.04434 1.24329,0.09483 2.21386,0.575761 1.22903,0.609004 1.84589,1.128471 1.84589,1.554434 0,0.356972 -2.95016,3.368614 -3.29984,3.368614 -0.1213,0 -0.43118,-0.136738 -0.68863,-0.303863 -1.39354,-0.904661 -2.64411,-0.679848 -3.32752,0.598187 -0.27526,0.514768 -0.27944,0.599865 -0.31603,6.438947 -0.0363,5.788187 -0.0427,5.922389 -0.29526,6.151279 -0.22724,0.20594 -0.50877,0.237307 -2.34811,0.261613 -1.14946,0.01519 -2.21334,-0.02399 -2.36418,-0.08707 z m 68.15492,0.03322 c -0.15705,-0.03015 -0.36948,-0.182923 -0.47208,-0.339505 -0.2763,-0.421669 -5.22339,-17.144899 -5.17983,-17.510019 0.054,-0.453032 0.5552,-0.538788 2.87718,-0.492313 1.8075,0.03618 2.0102,0.06306 2.2445,0.297679 0.17449,0.174705 0.70706,1.754219 1.65082,4.895916 0.76629,2.550903 1.43298,4.681979 1.48155,4.735723 0.0486,0.05375 0.60366,-1.60525 1.23354,-3.686659 0.62987,-2.081408 1.24147,-3.890737 1.35911,-4.020728 0.19228,-0.212453 0.41454,-0.236351 2.19813,-0.236351 1.79652,0 2.00548,0.02285 2.20881,0.241504 0.12353,0.132828 0.75637,1.999102 1.40632,4.147278 0.64997,2.148176 1.21936,3.861345 1.26535,3.807042 0.046,-0.0543 0.6944,-2.188911 1.44093,-4.743575 0.74653,-2.554664 1.41359,-4.769138 1.48237,-4.921052 0.19759,-0.436428 0.74656,-0.540667 2.77683,-0.527265 2.27247,0.015 2.50922,0.06408 2.56364,0.531491 0.0588,0.504736 -4.9613,17.28178 -5.26511,17.595994 -0.22595,0.233694 -0.40737,0.251072 -2.62094,0.251072 -2.21363,0 -2.39494,-0.01737 -2.6207,-0.251072 -0.14795,-0.153156 -0.68853,-1.716363 -1.38613,-4.00829 -0.62896,-2.066468 -1.16977,-3.783417 -1.20179,-3.81544 -0.074,-0.07399 0.005,-0.316572 -1.25632,3.867901 -0.59281,1.966992 -1.15642,3.696273 -1.25246,3.842848 -0.096,0.146575 -0.35498,0.302573 -0.57542,0.34666 -0.4359,0.08718 -3.89458,0.08017 -4.35829,-0.0088 z"
       id="path813" />
  </g>
</svg>
